<!-- Created with Inkscape (http://www.inkscape.org/) -->
<svg version="1.1" viewBox="0 0 1024 150" xmlns="http://www.w3.org/2000/svg">
    <defs>
        <symbol id="codepen" viewBox="625 0 205 150">
            <title>CodePen</title>
            <path d="m805.97 51.311c-0.26297-1.8408-1.271-3.5062-2.805-4.5142l-68.546-45.712c-2.1476-1.4463-4.9964-1.4463-7.1439 0l-68.59 45.712c-1.7531 1.1833-2.8488 3.2432-2.8488 5.347v45.712c0 2.1037 1.0957 4.2074 2.8488 5.347l68.546 45.712c2.1476 1.4463 4.9964 1.4463 7.1439 0l68.59-45.668c1.7531-1.1395 2.8926-3.2432 2.8926-5.347v-45.712c-0.0438-0.3068-0.0438-0.56976-0.0877-0.87656 0-0.0876 0.0438 0.3068 0 0zm-68.503-32.783 50.489 33.66-22.571 15.077-27.962-18.714v-30.022zm-12.885 0v30.066l-27.962 18.714-22.571-15.077zm-55.661 45.712 16.129 10.782-16.129 10.782zm55.661 67.275-50.489-33.66 22.571-15.077 27.962 18.671v30.066zm6.4427-41.242-22.79-15.252 22.79-15.252 22.79 15.252zm6.4427 41.242v-30.066l27.962-18.671 22.571 15.077zm55.661-45.712-16.129-10.782 16.129-10.782z" stroke-width=".43828"/>
        </symbol>
        <symbol id="stackoverflow" viewBox="195 0 205 150">
            <title>Stack Overflow</title>
            <path d="m313.79 129.99-59.242 0.0486v-12.625l59.242-0.0486zm40.013-71.625-10.1-58.368-12.48 2.1852 10.149 58.368zm-38.556 42.781-58.951-5.4386-1.1654 12.577 58.951 5.4386zm3.8848-16.51-57.203-15.393-3.302 12.237 57.203 15.393zm7.4781-14.471-50.987-30.107-6.4098 10.877 50.987 30.107zm12.48-8.8864-33.36-48.948-10.44 7.1382 33.36 48.948zm-15.248 27.096v51.716h-77.646v-51.716h-10.1v61.622h97.847v-61.622z" stroke-width=".48559"/>
        </symbol>
        <symbol id="github" viewBox="-25 0 205 150">
            <title>GitHub</title>
            <path d="m76.902 6.867e-5c-42.443 0-76.902 34.417-76.902 76.901 0 33.962 22.049 62.795 52.578 72.972 3.8471 0.70324 5.0882-1.6547 5.0882-3.6817v-14.354c-21.387 4.6745-25.854-9.0594-25.854-9.0594-3.4748-8.8939-8.5216-11.252-8.5216-11.252-6.991-4.7572 0.53778-4.6745 0.53778-4.6745 7.7356 0.53777 11.79 7.9425 11.79 7.9425 6.867 11.748 17.995 8.3562 22.38 6.3705 0.70324-4.964 2.6889-8.3562 4.8813-10.3-17.085-1.9442-35.038-8.5216-35.038-38.016 0-8.3975 3.0198-15.264 7.9425-20.642-0.78598-1.9442-3.4335-9.7626 0.74461-20.353 0 0 6.4533-2.0684 21.139 7.9011 6.1223-1.696 12.7-2.5648 19.236-2.6061 6.536 0.0414 13.113 0.86871 19.277 2.6061 14.685-9.9281 21.139-7.9011 21.139-7.9011 4.1781 10.59 1.572 18.408 0.74461 20.353 4.9227 5.3777 7.9011 12.245 7.9011 20.642 0 29.536-17.995 36.031-35.121 37.934 2.7716 2.3993 5.295 7.0738 5.295 14.23v21.097c0 2.027 1.241 4.4263 5.1295 3.6817 30.529-10.176 52.536-39.009 52.536-72.972 0-42.401-34.459-76.819-76.902-76.819z" stroke-width=".41367"/>
        </symbol>
        <symbol id="linkedin" viewBox="410 0 205 150">
            <title>LinkedIn</title>
            <path d="m474.67 18.469c0 10.171-8.1906 18.469-18.308 18.469s-18.308-8.2441-18.308-18.469c0-10.171 8.1906-18.469 18.308-18.469s18.308 8.2977 18.308 18.469zm-2.6767 31.531h-30.942v100h30.942zm49.465 0h-29.657v100h29.657v-52.463c0-14.079 6.4775-22.43 18.844-22.43 11.403 0 16.863 8.03 16.863 22.43v52.463h30.782v-63.33c0-26.767-15.15-39.722-36.403-39.722-21.199 0-30.139 16.542-30.139 16.542v-13.49z" stroke-width=".53533"/>
        </symbol>
        <symbol id="replit" viewBox="845 0 205 150">
            <title>Repl.it</title>
            <path d="m970.67 74.872a20.97 20.97 0 1 1-20.963-20.971 20.969 20.969 0 0 1 20.963 20.971zm-24.38 37.78s77.831 10.161 72.959-63.837a74.445 74.445 0 0 0-83.692-47.525c86.726 10.646 64.185 112.12 10.733 111.36zm39.642-33.355s18.382-77.495-64.359-74.033a74.101 74.101 0 0 0-46.618 79.78c17.415-87.68 116.62-59.29 110.98-5.7476zm-30.235-40.17s-77.689-21.693-76.5 63.021a75.078 75.078 0 0 0 18.106 27.068c0.32923 0.31579 0.67862 0.61431 1.0165 0.9253a75.13 75.13 0 0 0 7.1029 5.787c0.38394 0.27548 0.74773 0.57592 1.1346 0.84756a74.558 74.558 0 0 0 8.1962 4.8665c0.82355 0.42425 1.6644 0.81107 2.5052 1.2056a74.084 74.084 0 0 0 7.4869 3.0379c0.62487 0.21405 1.2238 0.47993 1.8573 0.67958a74.213 74.213 0 0 0 9.3154 2.2077c0.95217 0.16893 1.9197 0.30715 2.8796 0.43961a75.099 75.099 0 0 0 9.8654 0.76788c0.12671 0 0.24957 0.0192 0.37627 0.0192 2.4899 0 4.948-0.13246 7.3736-0.37242-87.183-20.798-54.036-118.27-0.71509-110.5zm-43.193 28.469s-20.818 76.71 62.629 77.378a74.86 74.86 0 0 0 48.398-62.452c0.2025-1.9927 0.263-4.0247 0.3071-6.0615 0.01-0.53656 0.08-1.0558 0.08-1.5953 0-2.3209-0.1421-4.6073-0.3475-6.8735-22.043 86.789-119.57 52.794-111.06-0.39546zm111.15 0.39354c0.2045 2.2662 0.3475 4.5535 0.3475 6.8735 0-2.3209-0.143-4.6073-0.3475-6.8735z" stroke-width=".95985"/>
        </symbol>
    </defs>
</svg>
