<svg version="1" xmlns="http://www.w3.org/2000/svg" width="413.333" height="413.333" viewBox="0 0 310.000000 310.000000"><path d="M0 155v155h310V0H0v155zm110.2-70.3c9.8 3.4 21.1 10.1 28.7 16.9l5.1 4.6-4.4 5.6c-2.3 3.2-7.8 11-12.1 17.4l-7.8 11.8-6.5-6.2c-12.8-11.9-26.1-15.2-38.3-9.6-7.6 3.5-11 6.7-15 14-3.2 5.9-3.4 6.9-3.4 15.8s.2 9.9 3.4 15.8c5.8 10.7 15.4 16.6 27.1 16.6 16 0 28.6-10.8 50-42.9 15.1-22.8 21.3-30.7 30.9-39.8 12-11.3 24.3-18.3 38.3-21.9C217 80.1 235 80.6 245 84c30.6 10.3 52 40.4 50.8 71.1l-.3 7.4h-85v-15l21.3-.3c14.5-.2 21.2-.6 21.2-1.3 0-2.4-6.5-13.1-9.4-15.6-5.6-4.7-13.3-7.6-20.5-7.7-15.4-.1-28.7 10.9-47.6 39.4-15.5 23.5-23.1 33.4-32.4 42.3-13.5 12.8-27.9 20.8-42.9 23.8-9 1.7-26.9.7-35.2-2.1-19.6-6.6-35.1-20.3-43.6-38.7-19-40.6 1.1-89.2 42.5-102.7 10.4-3.4 10.9-3.5 25.1-3.2 11 .2 13.5.6 21.2 3.3zm97.8 98.8c11.2 5.7 20.9 5.4 31.5-1l5.7-3.5h23.4c12.9 0 23.4.3 23.4.7 0 .3-1.8 4.3-3.9 8.7-8.9 18.3-23.8 31.2-43.6 37.8-6 2-9 2.3-21.5 2.3-13.7 0-15-.2-23.2-3.1-9.8-3.5-21.2-10.3-28.7-17l-5.1-4.6 4.4-5.6c2.3-3.2 7.8-11 12.1-17.4l7.8-11.8 6.4 6c3.5 3.3 8.6 7.1 11.3 8.5z"/></svg>